# AST/ASF file generated using VICON BodyLanguage
# -----------------------------------------------
:version 1.10
:name VICON
:units
  mass 1.0
  length 0.45
  angle deg
:documentation
   .ast/.asf automatically generated from VICON data using
   VICON BodyBuilder and BodyLanguage model FoxedUp or BRILLIANT.MOD
:root
   order TX TY TZ RX RY RZ
   axis XYZ
   position 0 0 0  
   orientation 0 0 0 
:bonedata
  begin
     id 1 
     name lhipjoint
     direction 0.643822 -0.745931 0.170529 
     length 2.62041 
     axis 0 0 0  XYZ
  end
  begin
     id 2 
     name lfemur
     direction 0.34202 -0.939693 0  
     length 7.92179  
     axis 0 0 20  XYZ
    dof rx ry rz
    limits (-160.0 20.0)
           (-70.0 70.0)
           (-60.0 70.0)
  end
  begin
     id 3 
     name ltibia
     direction 0.34202 -0.939693 0   
     length 8.16326   
     axis 0 0 20   XYZ
    dof rx
    limits (-10.0 170.0)
  end
  begin
     id 4 
     name lfoot
     direction 0.0837341 -0.230058 0.969568   
     length 1.94455   
     axis -90 7.62852e-016 20   XYZ
    dof rx rz
    limits (-45.0 90.0)
           (-70.0 20.0)
  end
  begin
     id 5 
     name ltoes
     direction 1.5356e-011 -4.21695e-011 1   
     length 0.978804   
     axis -90 7.62852e-016 20   XYZ
    dof rx
    limits (-90.0 20.0)
  end
  begin
     id 6 
     name rhipjoint
     direction -0.656883 -0.73503 0.168037   
     length 2.65927  
     axis 0 0 0  XYZ 
  end
  begin
     id 7 
     name rfemur
     direction -0.34202 -0.939693 0   
     length 7.58746   
     axis 0 0 -20   XYZ
    dof rx ry rz
    limits (-160.0 20.0)
           (-70.0 70.0)
           (-70.0 60.0)
  end
  begin
     id 8 
     name rtibia
     direction -0.342117 -0.939657 0   
     length 8.27303   
     axis 0 0 -20   XYZ
    dof rx
    limits (-10.0 170.0)
 end
 begin
     id 9 
     name rfoot
     direction -0.0685862 -0.188439 0.979687   
     length 2.13088  
     axis -90 -7.62852e-016 -20   XYZ
    dof rx rz
    limits (-45.0 90.0)
           (-20.0 70.0)
  end
  begin
     id 10 
     name rtoes
     direction -1.53538e-011 -4.21514e-011 1   
     length 1.07326   
     axis -90 -7.62852e-016 -20   XYZ
    dof rx
    limits (-90.0 20.0)
  end
  begin
     id 11 
     name lowerback
     direction -0.0358974 0.997216 0.065354   
     length 1.87174   
     axis 0 0 0   XYZ
    dof rx ry rz
    limits (-20.0 45.0)
           (-30.0 30.0)
           (-30.0 30.0)
  end
  begin
     id 12 
     name upperback
     direction 0.0202028 0.998565 0.0495864   
     length 1.8684   
     axis 0 0 0   XYZ
    dof rx ry rz
    limits (-20.0 45.0)
           (-30.0 30.0)
           (-30.0 30.0)
  end
  begin
     id 13 
     name thorax
     direction 0.0366367 0.999163 0.0182199   
     length 1.87747   
     axis 0 0 0   XYZ
    dof rx ry rz
    limits (-20.0 45.0)
           (-30.0 30.0)
           (-30.0 30.0)
  end
  begin
     id 14 
     name lowerneck
     direction 0.0284381 0.999578 -0.00598196   
     length 1.84583   
     axis 0 0 0   XYZ
    dof rx ry rz
    limits (-20.0 45.0)
           (-30.0 30.0)
           (-30.0 30.0)
  end
  begin
     id 15 
     name upperneck
     direction -0.0888142 0.993333 -0.0734973   
     length 1.84467   
     axis 0 0 0   XYZ
    dof rx ry rz
    limits (-20.0 45.0)
           (-30.0 30.0)
           (-30.0 30.0)
  end
  begin
     id 16
     name head
     direction -0.0296474 0.999102 -0.0302696  
     length 1.86566  
     axis 0 0 0   XYZ
    dof rx ry rz
    limits (-20.0 45.0)
           (-30.0 30.0)
           (-30.0 30.0)
  end
  begin
     id 17 
     name lclavicle
     direction 0.933925 0.35714 -0.0153523  
     length 3.93442  
     axis 0 0 0   XYZ
    dof ry rz
    limits (-20.0 10.0)
           (0.0 20.0)
  end
  begin
     id 18 
     name lhumerus
     direction 1 -4.48967e-011 2.12044e-027   
     length 5.78174   
     axis 180 -30 -90   XYZ
    dof rx ry rz
    limits (-60.0 90.0)
           (-90.0 90.0)
           (-90.0 90.0)
  end
  begin
     id 19
     name lradius
     direction 1 -4.48972e-011 6.45701e-027   
     length 3.53992   
     axis 180 -30 -90   XYZ
    dof rx
    limits (-10.0 170.0)
  end
  begin
     id 20
     name lwrist
     direction 1 -4.48981e-011 1.70244e-026   
     length 1.76996   
     axis -1.1226e-014 90 90   XYZ
    dof ry
    limits (-180.0 0.0)
 end
  begin
     id 21 
     name lhand
     direction 1 -4.4879e-011 3.40615e-026   
     length 0.550243   
     axis -2.17265e-014 90 90   XYZ
    dof rx rz
    limits (-90.0 90.0)
           (-45.0 45.0)
  end
  begin
     id 22 
     name lfingers
     direction 1 -4.49029e-011 6.80911e-026   
     length 0.44362   
     axis -4.34526e-014 90 90   XYZ
    dof rx
    limits (0.0 90.0)
  end
  begin
     id 23
     name lthumb
     direction 0.707107 -6.34923e-011 0.707107   
     length 0.636952   
     axis -90 45 -1.62303e-014   XYZ
    dof rx rz
    limits (-45.0 45.0)
           (-45.0 45.0)
  end
  begin
     id 24 
     name rclavicle
     direction -0.950832 0.305106 0.0531883   
     length 3.96125  
     axis 0 0 0   XYZ 
    dof ry rz
    limits (-10.0 20.0)
           (-20.0 0.0)
  end
  begin
     id 25 
     name rhumerus
     direction -1 -4.48961e-011 -6.07392e-030  
     length 5.79352   
     axis 180 30 90   XYZ
    dof rx ry rz
    limits (-90.0 60.0)
           (-90.0 90.0)
           (-90.0 90.0)
  end
  begin
     id 26 
     name rradius
     direction -1 -4.48964e-011 5.97548e-027   
     length 3.37081   
     axis 180 30 90   XYZ
    dof rx
    limits (-10.0 170.0)
  end
  begin
     id 27 
     name rwrist
     direction -1 -4.49021e-011 1.7023e-026   
     length 1.68541   
     axis -1.1226e-014 -90 -90   XYZ
    dof ry
    limits (-180.0 0.0)
  end
  begin
     id 28
     name rhand
     direction -1 -4.48867e-011 3.40563e-026   
     length 0.679827   
     axis -2.17265e-014 -90 -90   XYZ
    dof rx rz
    limits (-90.0 90.0)
           (-45.0 45.0)
  end
  begin
     id 29
     name rfingers
     direction -1 -4.49024e-011 6.80917e-026   
     length 0.548094   
     axis -4.34526e-014 -90 -90   XYZ
    dof rx
    limits (0.0 90.0)
  end
  begin
     id 30
     name rthumb
     direction -0.707107 -6.3488e-011 0.707107   
     length 0.786956   
     axis -90 -45 1.62303e-014   XYZ
    dof rx rz
    limits (-45.0 45.0)
           (-45.0 45.0)
  end
:hierarchy
  begin
    root lhipjoint rhipjoint lowerback
    lhipjoint lfemur
    lfemur ltibia
    ltibia lfoot
    lfoot ltoes
    rhipjoint rfemur
    rfemur rtibia
    rtibia rfoot
    rfoot rtoes
    lowerback upperback
    upperback thorax
    thorax lowerneck lclavicle rclavicle
    lowerneck upperneck
    upperneck head
    lclavicle lhumerus
    lhumerus lradius
    lradius lwrist
    lwrist lhand lthumb
    lhand lfingers
    rclavicle rhumerus
    rhumerus rradius
    rradius rwrist
    rwrist rhand rthumb
    rhand rfingers
  end

#!OML:ASF H:\Terrain\Patient Classification 1\PaulMetrics\Match1Take2\PaulMetrics.ASF
:FULLY-SPECIFIED
:DEGREES
97
root 12.2384 17.948 -21.3382 -161.248 32.537 186.419
lowerback -10.4781 -0.166422 -4.54238
upperback -6.72142 0.72612 2.09339
thorax -1.22043 0.795084 4.8015
lowerneck -4.1558 7.61952 5.74849
upperneck 9.85266 11.0855 -8.65942
head 4.42942 5.39481 -2.94771
rclavicle 1.55301e-014 -1.63003e-014
rhumerus -52.6298 14.9273 -87.2027
rradius 57.9746
rwrist -12.6189
rhand -14.6596 -33.4932
rfingers 7.12502
rthumb 11.4931 -63.1581
lclavicle 1.55301e-014 -1.63003e-014
lhumerus -56.0458 -6.12899 83.1553
lradius 39.5182
lwrist 1.96764
lhand -12.4922 -5.42801
lfingers 7.12502
lthumb 13.5827 24.1089
rfemur -8.96431 -1.68476 28.3993
rtibia 26.7355
rfoot -14.9427 -9.29033
rtoes -21.4067
lfemur -45.3501 13.4768 -31.9407
ltibia 23.6083
lfoot -8.34334 24.0773
ltoes 4.97606
98
root 12.2975 17.945 -21.4854 -161.438 32.2271 186.348
lowerback -10.6388 -0.256515 -4.7067
upperback -6.62839 0.620196 2.02413
thorax -1.02468 0.734627 4.81622
lowerneck -3.70607 7.55867 5.94847
upperneck 9.29559 10.9505 -8.72581
head 4.18943 5.34774 -3.03647
rclavicle 7.48673e-014 1.90833e-014
rhumerus -52.7229 14.6504 -87.4215
rradius 57.5022
rwrist -12.535
rhand -14.8873 -32.8949
rfingers 7.12502
rthumb 11.2734 -62.5719
lclavicle 7.48673e-014 1.90833e-014
lhumerus -55.7621 -6.26249 83.1326
lradius 39.501
lwrist 2.51945
lhand -13.6182 -6.05364
lfingers 7.12502
lthumb 12.4972 23.5527
rfemur -9.19412 -2.47886 28.0465
rtibia 28.4348
rfoot -14.466 -7.65111
rtoes -21.5655
lfemur -44.9114 13.2985 -31.8241
ltibia 24.2817
lfoot -8.77571 23.222
ltoes 1.91032
99
root 12.3537 17.9321 -21.6321 -161.515 31.7365 186.399
lowerback -10.8013 -0.374683 -4.67437
upperback -6.59546 0.469247 1.9763
thorax -0.882431 0.652871 4.73593
lowerneck -2.21753 8.12089 8.34099
upperneck 7.87059 11.8542 -11.4218
head 3.88175 5.83973 -4.24544
rclavicle 4.51241e-014 -5.56597e-015
rhumerus -52.9092 14.4937 -87.744
rradius 56.9988
rwrist -12.298
rhand -14.9342 -32.4403
rfingers 7.12502
rthumb 11.2282 -62.1198
lclavicle 4.51241e-014 -5.56597e-015
lhumerus -55.5564 -6.37425 83.0824
lradius 39.6453
lwrist 2.93437
lhand -14.1633 -6.08474
lfingers 7.12502
lthumb 11.9716 23.5529
rfemur -9.53976 -3.6355 27.8322
rtibia 30.278
rfoot -13.5511 -6.22099
rtoes -23.6102
lfemur -44.4918 13.1016 -31.5875
ltibia 24.8982
lfoot -9.19078 22.0662
ltoes 0.921181
100
root 12.4067 17.9099 -21.7709 -161.654 31.1763 186.429
lowerback -10.7231 -0.445252 -4.67955
upperback -6.66194 0.380376 1.93919
thorax -0.983702 0.615613 4.68955
lowerneck -3.72252 7.90186 6.3476
upperneck 9.58228 11.4596 -8.93261
head 4.35236 5.60372 -3.11821
rclavicle -1.77912e-014 -2.5842e-014
rhumerus -53.3402 14.2333 -87.994
rradius 56.6186
rwrist -11.8533
rhand -14.6301 -32.1554
rfingers 7.12502
rthumb 11.5215 -61.8187
lclavicle -1.77912e-014 -2.5842e-014
lhumerus -55.3391 -6.4175 82.988
lradius 39.7149
lwrist 3.05574
lhand -13.7835 -6.30266
lfingers 7.12502
lthumb 12.3379 23.3133
rfemur -9.97779 -5.01683 27.6004
rtibia 32.2047
rfoot -12.2572 -5.17977
rtoes -26.0837
lfemur -44.0654 12.7961 -31.3067
ltibia 25.5348
lfoot -9.70358 21.0055
ltoes 0.967183
101
root 12.4608 17.8913 -21.915 -162.049 30.6936 186.134
lowerback -10.563 -0.538044 -5.07436
upperback -6.7336 0.289102 1.92098
thorax -1.1406 0.590381 4.88387
lowerneck -1.5453 8.07455 8.64319
upperneck 7.58424 11.8978 -12.0777
head 3.74463 5.88889 -4.52372
rclavicle -1.63997e-015 2.10712e-014
rhumerus -53.837 13.9316 -88.0343
rradius 56.2959
rwrist -11.5852
rhand -14.3816 -32.3194
rfingers 7.12502
rthumb 11.7611 -61.9692
lclavicle -1.63997e-015 2.10712e-014
lhumerus -55.2288 -6.38823 82.9998
lradius 39.9396
lwrist 3.39131
lhand -13.3351 -6.44868
lfingers 7.12502
lthumb 12.7701 23.1408
rfemur -10.4011 -6.0653 26.9825
rtibia 34.1845
rfoot -10.771 -4.10494
rtoes -26.3137
lfemur -43.5432 12.5428 -31.4348
ltibia 26.191
lfoot -10.728 20.1793
ltoes 1.36817
